<?xml version="1.0" encoding="iso-8859-1"?>
<!-- Uploaded to: SVG Repo, www.svgrepo.com, Generator: SVG Repo Mixer Tools -->
<svg height="800px" width="800px" version="1.1" id="Layer_1" xmlns="http://www.w3.org/2000/svg" xmlns:xlink="http://www.w3.org/1999/xlink" 
	 viewBox="0 0 512.002 512.002" xml:space="preserve">
<path style="fill:#D46366;" d="M329.39,159.616c0-27.274-8.589-54.036-24.851-77.424l-36.526-52.535
	c-8.328-11.977-26.046-11.977-34.373,0l-36.526,52.535c-16.26,23.388-24.851,50.15-24.851,77.424l-0.453,230.607
	c0,0.007,0.007,0.013,0.015,0.01c1.284-0.476,3.403-1.201,4.719-1.577c0.022-0.006,0.044-0.013,0.067-0.019
	c0.529-0.15,1.06-0.289,1.595-0.421c0.457-0.113,0.921-0.216,1.384-0.318c0.45-0.099,0.898-0.205,1.352-0.29
	c0.883-0.17,1.775-0.312,2.672-0.436c0.405-0.057,0.816-0.096,1.223-0.147c0.636-0.078,1.275-0.134,1.916-0.182
	c0.318-0.025,0.636-0.049,0.957-0.068c1.009-0.06,2.025-0.099,3.048-0.099c4.244,0,8.367,0.507,12.316,1.462
	c2.633,0.638,5.188,1.474,7.648,2.492c1.846,0.764,3.637,1.631,5.369,2.592c1.733,0.961,8.558-1.972,10.647-4.277
	c1.172-1.295,2.417-2.52,3.712-3.692c9.279-8.394,21.561-13.527,35.059-13.527c15.152,0,28.792,6.444,38.344,16.736
	c2.605,2.807,4.906,5.901,6.851,9.228c1.297,2.218,5.573,5.161,6.692,4.305c0.264-0.202,0.532-0.401,0.799-0.6
	c1.111-0.825,2.239-1.628,3.397-2.392c0.014-0.01,0.028-0.02,0.042-0.029c1.248-0.822,2.526-1.599,3.822-2.347
	c0.157-0.09,0.315-0.179,0.472-0.267c1.282-0.726,2.584-1.423,3.911-2.074l0,0L329.39,159.616z M250.827,215.997
	c-19.461,0-35.237-15.776-35.237-35.237s15.776-35.237,35.237-35.237s35.237,15.776,35.237,35.237S270.29,215.997,250.827,215.997z"
	/>
<g>
	<path style="fill:#4C1B27;" d="M250.829,230.52c-27.439,0-49.761-22.324-49.761-49.761s22.324-49.761,49.761-49.761
		c27.439,0,49.761,22.324,49.761,49.761S278.267,230.52,250.829,230.52z M250.829,160.043c-11.422,0-20.714,9.292-20.714,20.714
		s9.292,20.714,20.714,20.714c11.422,0,20.714-9.292,20.714-20.714S262.25,160.043,250.829,160.043z"/>
	<path style="fill:#4C1B27;" d="M316.861,416.672c-8.657,0-16.063-7.147-18.694-11.652c-1.399-2.393-3.066-4.64-4.957-6.678
		c-7.235-7.799-17.072-12.093-27.699-12.093c-9.359,0-18.349,3.471-25.315,9.773c-1.015,0.918-1.895,1.792-2.688,2.668
		c-4.618,5.098-13.798,9.243-20.467,9.243c-2.899,0-5.589-0.677-7.994-2.013c-1.25-0.696-2.556-1.324-3.879-1.873
		c-1.779-0.736-3.632-1.341-5.507-1.794c-3.603-0.871-7.407-1.195-11.103-0.98l-0.706,0.052c-0.412,0.03-0.821,0.062-1.229,0.113
		l-1.014,0.119c-0.651,0.09-1.291,0.19-1.926,0.312c-0.203,0.038-0.379,0.08-0.556,0.121l-0.427,0.094
		c-0.333,0.073-0.668,0.147-0.999,0.228c-0.386,0.094-0.77,0.196-1.152,0.304c-0.8,0.228-2.514,0.805-3.676,1.236
		c-0.15,0.055-0.301,0.109-0.453,0.158c-1.481,0.494-3.034,0.747-4.595,0.747h-0.001c-8.02-0.001-14.532-6.514-14.532-14.533
		l0.453-230.636c0-30.218,9.492-59.857,27.449-85.686l36.526-52.535c6.624-9.529,17.506-15.216,29.112-15.216
		c11.604,0,22.488,5.689,29.112,15.216L316.467,73.9c17.956,25.828,27.447,55.467,27.447,85.714l0.453,234.642
		c0.012,5.546-3.138,10.616-8.117,13.062c-1.014,0.498-2.045,1.046-3.156,1.675l-0.375,0.212c-1.102,0.636-2.072,1.229-2.967,1.814
		c-0.052,0.035-0.105,0.071-0.158,0.106c-0.825,0.545-1.724,1.178-2.745,1.936l-0.648,0.487
		C323.531,415.588,320.296,416.672,316.861,416.672z M265.51,357.204c18.527,0,36.383,7.793,48.991,21.382
		c0.266,0.286,0.527,0.574,0.789,0.864l-0.424-219.806c0-24.319-7.694-48.226-22.251-69.162L256.09,37.947
		c-1.664-2.393-4.013-2.751-5.263-2.751c-1.252,0-3.599,0.357-5.263,2.751l-36.526,52.535
		c-14.557,20.938-22.251,44.843-22.251,69.133l-0.417,212.693c0.168-0.012,0.338-0.023,0.508-0.032
		c1.436-0.084,2.674-0.123,3.879-0.123c5.311,0,10.603,0.629,15.731,1.869c3.33,0.806,6.623,1.879,9.786,3.189
		c0.372,0.154,0.744,0.311,1.114,0.473c1.034-1.069,2.129-2.126,3.314-3.198C233.026,363.34,248.936,357.204,265.51,357.204z"/>
	<path style="fill:#4C1B27;" d="M480.075,505.852H372.174c-8.02,0-14.523-6.502-14.523-14.523c0-8.021,6.503-14.523,14.523-14.523
		h107.901c1.128,0,1.847-0.598,2.177-0.954c0.518-0.562,0.754-1.211,0.696-1.932l-0.032-0.378
		c-1.338-14.706-13.483-26.519-28.246-27.431c-5.304-0.328-10.371,0.654-15.071,2.913c-3.699,1.781-7.979,1.91-11.778,0.36
		c-3.801-1.551-6.768-4.637-8.168-8.496c-8.612-23.74-31.373-39.69-56.634-39.69c-14.34,0-28.239,5.141-39.137,14.475
		c-3.56,3.048-8.37,4.187-12.915,3.073c-4.549-1.118-8.278-4.361-10.017-8.712c-5.779-14.449-19.558-23.786-35.108-23.786
		c-13.125,0-25.119,6.665-32.089,17.827c-2.122,3.398-5.554,5.77-9.482,6.553c-3.929,0.781-8.008-0.093-11.27-2.42
		c-6.431-4.586-14.008-7.01-21.91-7.01c-6.422,0-12.77,1.645-18.357,4.758c-5.847,3.256-13.162,2.096-17.715-2.81
		c-10.108-10.897-23.844-16.898-38.678-16.898c-29.088,0-52.754,23.665-52.754,52.754c0,2.014,0.125,4.059,0.385,6.254
		c0.929,7.879-4.636,15.045-12.5,16.096c-8.261,1.104-15.758,4.822-21.682,10.753c-0.327,0.328-1.195,1.197-0.513,2.844
		c0.511,1.233,1.425,1.858,2.716,1.858h238.524c8.02,0,14.523,6.502,14.523,14.523c0,8.021-6.503,14.523-14.523,14.523H31.988
		c-12.968,0-24.567-7.764-29.547-19.781c-4.928-11.889-2.261-25.427,6.794-34.492c7.148-7.157,15.882-12.594,25.369-15.904
		c1.753-43.568,37.743-78.471,81.733-78.471c19.102,0,37.627,6.776,52.221,18.863c7.202-2.576,14.838-3.913,22.53-3.913
		c9.26,0,18.267,1.881,26.601,5.509c12.461-12.995,29.671-20.459,48.151-20.459c21.404,0,40.912,10.001,53.323,26.48
		c13.302-7.507,28.406-11.53,43.854-11.53c32.684,0,62.541,18.014,78.092,45.999c5.025-0.999,10.194-1.354,15.348-1.033
		c28.948,1.788,52.758,24.932,55.39,53.837l0.055,0.652c0.7,8.733-2.327,17.464-8.304,23.943
		C497.555,502.098,488.982,505.852,480.075,505.852z"/>
	<path style="fill:#4C1B27;" d="M386.437,386.715c-1.551,0-3.13-0.251-4.681-0.778c-7.594-2.584-11.653-10.834-9.07-18.427
		l23.427-68.834c1.862-5.471-0.01-11.453-4.659-14.886l-21.804-16.1c-6.451-4.765-7.821-13.858-3.056-20.311
		c4.764-6.451,13.859-7.818,20.309-3.056l21.804,16.1c14.867,10.979,20.857,30.112,14.902,47.611l-23.427,68.834
		C398.128,382.908,392.483,386.715,386.437,386.715z"/>
	<path style="fill:#4C1B27;" d="M115.219,386.715c-6.046,0-11.691-3.807-13.748-9.848l-23.427-68.834
		c-5.956-17.497,0.033-36.63,14.902-47.61l21.802-16.102c6.453-4.765,15.547-3.397,20.311,3.054
		c4.765,6.453,3.397,15.546-3.054,20.311l-21.804,16.102c-4.65,3.433-6.522,9.415-4.659,14.886l23.427,68.834
		c2.584,7.593-1.477,15.843-9.07,18.427C118.349,386.463,116.77,386.715,115.219,386.715z"/>
</g>
</svg>